<svg xmlns="http://www.w3.org/2000/svg" aria-hidden="true" style="position:absolute;width:0;height:0;overflow:hidden"><defs><symbol id="icon-linkedin" fill="none" viewBox="0 0 40 40"><path fill="var(--color0, #4d5ae5)" d="M40 20c0 5.523-2.239 10.523-5.858 14.142S25.522 40 20 40 9.477 37.761 5.858 34.142C2.238 30.522 0 25.522 0 20S2.239 9.477 5.858 5.858C9.478 2.238 14.478 0 20 0s10.523 2.239 14.142 5.858A19.94 19.94 0 0 1 40 20"/><g fill="var(--color2, #f4f4fd)" clip-path="url(#clip0_431671_2301)"><path d="M31.994 32v-.001H32v-8.802c0-4.306-.927-7.623-5.96-7.623-2.421 0-4.045 1.328-4.708 2.587h-.07v-2.185h-4.773v16.023h4.97v-7.934c0-2.089.396-4.109 2.983-4.109 2.55 0 2.587 2.384 2.587 4.243V32zM8.396 15.977h4.976V32H8.396zM10.882 8A2.883 2.883 0 0 0 8 10.882c0 1.591 1.291 2.909 2.882 2.909s2.882-1.318 2.882-2.909A2.884 2.884 0 0 0 10.882 8"/></g><defs><clipPath id="clip0_431671_2301"><path fill="#fff" d="M8 8h24v24H8z"/></clipPath></defs></symbol><symbol id="icon-facebook" fill="none" viewBox="0 0 40 40"><path fill="var(--color0, #4d5ae5)" d="M40 20c0 5.523-2.239 10.523-5.858 14.142S25.522 40 20 40 9.477 37.761 5.858 34.142C2.238 30.522 0 25.522 0 20S2.239 9.477 5.858 5.858C9.478 2.238 14.478 0 20 0s10.523 2.239 14.142 5.858A19.94 19.94 0 0 1 40 20"/><path fill="var(--color2, #f4f4fd)" d="M23.997 11.985h2.191V8.169C25.81 8.117 24.51 8 22.996 8c-3.159 0-5.323 1.987-5.323 5.639V17h-3.486v4.266h3.486V32h4.274V21.267h3.345l.531-4.266h-3.877v-2.939c.001-1.233.333-2.077 2.051-2.077"/></symbol><symbol id="icon-twitter" fill="none" viewBox="0 0 40 40"><path fill="var(--color0, #4d5ae5)" d="M40 20c0 5.523-2.239 10.523-5.858 14.142S25.522 40 20 40 9.477 37.761 5.858 34.142C2.238 30.522 0 25.522 0 20S2.239 9.477 5.858 5.858C9.478 2.238 14.478 0 20 0s10.523 2.239 14.142 5.858A19.94 19.94 0 0 1 40 20"/><path fill="var(--color2, #f4f4fd)" d="M32 12.559c-.892.391-1.843.65-2.835.777a4.9 4.9 0 0 0 2.165-2.72 9.8 9.8 0 0 1-3.12 1.191 4.919 4.919 0 0 0-8.511 3.364c0 .39.032.766.113 1.123-4.09-.2-7.71-2.16-10.141-5.147a4.95 4.95 0 0 0-.674 2.487c0 1.704.878 3.215 2.186 4.089a4.86 4.86 0 0 1-2.223-.606v.054a4.94 4.94 0 0 0 3.942 4.835c-.4.109-.837.161-1.29.161a4.4 4.4 0 0 1-.932-.084c.638 1.949 2.447 3.381 4.598 3.428a9.9 9.9 0 0 1-6.1 2.098c-.404 0-.791-.018-1.178-.067a13.85 13.85 0 0 0 7.548 2.208c9.054 0 14.004-7.5 14.004-14.001q0-.324-.018-.636A9.8 9.8 0 0 0 32 12.559"/></symbol><symbol id="icon-instagram" fill="none" viewBox="0 0 40 40"><path fill="var(--color0, #4d5ae5)" d="M40 20c0 5.523-2.239 10.523-5.858 14.142S25.522 40 20 40 9.477 37.761 5.858 34.142C2.238 30.522 0 25.522 0 20S2.239 9.477 5.858 5.858C9.478 2.238 14.478 0 20 0s10.523 2.239 14.142 5.858A19.94 19.94 0 0 1 40 20"/><g fill="var(--color2, #f4f4fd)" clip-path="url(#clip0_431671_2298)"><path d="M31.977 15.056c-.057-1.275-.263-2.152-.558-2.911a5.86 5.86 0 0 0-1.388-2.129 5.9 5.9 0 0 0-2.124-1.383c-.764-.295-1.636-.502-2.911-.558C23.71 8.015 23.303 8 20.045 8c-3.259 0-3.667.014-4.947.07-1.275.057-2.152.263-2.911.558a5.86 5.86 0 0 0-2.129 1.388 5.9 5.9 0 0 0-1.383 2.124c-.295.764-.502 1.636-.558 2.911-.06 1.285-.075 1.693-.075 4.951 0 3.259.014 3.667.07 4.947.057 1.275.263 2.152.558 2.911a5.9 5.9 0 0 0 1.388 2.129c.6.61 1.327 1.083 2.124 1.383.764.295 1.636.501 2.912.558 1.28.056 1.687.07 4.946.07s3.666-.014 4.946-.07c1.275-.057 2.152-.263 2.912-.558a6.14 6.14 0 0 0 3.511-3.512c.296-.764.502-1.636.558-2.911.056-1.28.07-1.688.07-4.947 0-3.258-.004-3.666-.06-4.946m-2.162 9.799c-.051 1.172-.248 1.805-.412 2.227a3.98 3.98 0 0 1-2.279 2.279c-.422.164-1.06.36-2.227.412-1.266.056-1.645.07-4.848.07s-3.586-.014-4.848-.07c-1.172-.051-1.805-.248-2.227-.412a3.7 3.7 0 0 1-1.378-.896 3.7 3.7 0 0 1-.895-1.378c-.165-.422-.362-1.06-.413-2.227-.056-1.266-.07-1.646-.07-4.848s.014-3.587.07-4.848c.052-1.172.248-1.805.413-2.227.192-.52.496-.994.9-1.379a3.7 3.7 0 0 1 1.378-.895c.422-.164 1.06-.36 2.227-.413 1.266-.056 1.646-.07 4.848-.07 3.207 0 3.587.014 4.848.07 1.172.052 1.805.249 2.227.413.52.192.994.497 1.378.895.399.39.703.859.896 1.379.164.422.36 1.06.412 2.227.056 1.266.07 1.646.07 4.848s-.014 3.577-.07 4.843"/><path d="M20.045 13.837a6.167 6.167 0 0 0-6.166 6.165 6.167 6.167 0 0 0 6.166 6.165 6.167 6.167 0 0 0 6.165-6.165 6.167 6.167 0 0 0-6.165-6.165m0 10.164a4 4 0 1 1 0-8 4 4 0 0 1 0 8M27.893 13.593a1.44 1.44 0 1 1-2.879 0 1.44 1.44 0 0 1 2.879 0"/></g><defs><clipPath id="clip0_431671_2298"><path fill="#fff" d="M8 8h24v24H8z"/></clipPath></defs></symbol><symbol id="icon-astronaut" fill="var(--color0, #4d5ae5)" viewBox="0 0 64 64"><path d="M63.948 9.048a1.07 1.07 0 0 0-.86-.725l-3.822-.556-1.71-3.462c-.358-.73-1.553-.73-1.912 0l-1.71 3.462-3.82.556a1.066 1.066 0 0 0-.592 1.819l2.765 2.695-.653 3.806c-.068.4.096.804.424 1.043.332.241.765.271 1.124.081L56.6 15.97l3.418 1.797a1.068 1.068 0 0 0 1.547-1.124l-.652-3.806 2.766-2.696a1.07 1.07 0 0 0 .27-1.093m-4.926 2.654c-.25.244-.366.598-.306.944l.382 2.228-2.001-1.051a1.06 1.06 0 0 0-.994 0l-2.001 1.051.382-2.228a1.07 1.07 0 0 0-.307-.944l-1.62-1.579 2.238-.325c.348-.05.648-.269.803-.583l1-2.027L57.6 9.214c.156.315.456.534.804.584l2.237.325zM52.267 41.044h-2.134v2.134h2.134zM52.267 45.311h-2.134v2.134h2.134zM54.4 43.178h-2.133v2.133H54.4zM50.134 43.178H48v2.133h2.134zM44.8 52.778h-2.133v2.133H44.8zM44.8 57.045h-2.133v2.133H44.8zM46.934 54.911H44.8v2.134h2.134zM42.667 54.911h-2.134v2.134h2.134zM32 48.511h-2.133v2.134H32zM32 52.778h-2.133v2.133H32zM34.133 50.645H32v2.133h2.133zM29.867 50.645h-2.134v2.133h2.134zM11.733 12.244H9.6v2.133h2.133zM11.733 16.51H9.6v2.134h2.133zM13.866 14.377h-2.133v2.134h2.133zM9.6 14.377H7.466v2.134H9.6z"/><path fill="var(--color1, #2e2f42)" d="M49.43 28.319a3.55 3.55 0 0 0-2.377-1.41 3.55 3.55 0 0 0-2.68.705l-2.503 1.919h-.001l-3.796 2.835-2.715-1.082c4.842-2.172 8.227-7.016 8.227-12.64C43.585 11 37.34 4.78 29.663 4.78S15.74 11 15.74 18.646c0 2.771.83 5.349 2.24 7.517l-5.527-.048h-.01c-.017 0-.03.009-.047.01a1 1 0 0 0-.31.062c-.026.01-.052.015-.077.026-.012.006-.025.007-.038.013l-6.466 3.193h-.002l-3.787 1.822a1 1 0 0 0-.126.07A3.56 3.56 0 0 0 .393 35.9a3.55 3.55 0 0 0 2.112 1.779 3.558 3.558 0 0 0 2.757-.257l2.776-1.476 4.528-2.339 2.714-.015-10.884 10.83q0 .002-.003.003l-2.677 2.666a3.3 3.3 0 0 0-.98 2.356c0 .89.347 1.727.98 2.357.65.647 1.504.97 2.358.97.856 0 1.709-.323 2.36-.97l2.629-2.618 3.482-2.599 1.801 1.794-3.523 3.508-.003.003-2.678 2.666a3.3 3.3 0 0 0-.98 2.355c0 .89.348 1.727.98 2.358.65.646 1.505.97 2.36.97s1.71-.324 2.36-.97l2.679-2.667 4.285-4.266q0-.003.002-.004l2.019-2-.007-.007c.012-.013.03-.017.043-.031L32.215 38.98l6.942.988q.075.011.15.01c.13 0 .254-.03.375-.076q.05-.02.1-.047c.038-.019.078-.03.114-.054l6.427-4.267c.024-.016.036-.042.059-.059.025-.02.057-.028.08-.05l2.544-2.383a3.56 3.56 0 0 0 .424-4.723M4.26 35.54c-.346.186-.74.223-1.116.104a1.43 1.43 0 0 1-.425-2.52l2.628-1.264.632 1.849.266.776zm6.995-3.655-3.097 1.6-.51-1.494-.367-1.073 4.053-2zm30.199-13.241c0 1.837-.439 3.57-1.198 5.119l-8.363-3.798a3.72 3.72 0 0 0-1.576-2.776l2.928-9.72C38 8.98 41.454 13.416 41.454 18.643m-23.578 0c0-6.47 5.289-11.733 11.789-11.733.506 0 1 .042 1.49.104l-2.864 9.507c-.038 0-.075-.011-.114-.011a3.743 3.743 0 0 0-3.745 3.733 3.743 3.743 0 0 0 3.745 3.733c1.389 0 2.589-.766 3.236-1.889l7.725 3.51c-2.15 2.893-5.59 4.78-9.473 4.78-6.5 0-11.789-5.265-11.789-11.734m11.913 1.6c0 .882-.724 1.6-1.612 1.6a1.61 1.61 0 0 1-1.612-1.6c0-.882.723-1.6 1.612-1.6s1.612.718 1.612 1.6M4.929 50.292a1.217 1.217 0 0 1-1.708.002 1.19 1.19 0 0 1 0-1.689l1.924-1.917 1.703 1.695zm6.428 7.467a1.216 1.216 0 0 1-1.71.001 1.19 1.19 0 0 1 0-1.688l1.926-1.918.805.801.899.894zm6.964-6.937-.004.002-3.53 3.52-.805-.801-.898-.894 3.527-3.51v-.002q0 0 .003-.002c.08-.08.13-.176.18-.27.013-.028.04-.052.051-.08.034-.083.039-.171.052-.258.006-.049.028-.095.028-.145 0-.071-.026-.14-.041-.211-.013-.064-.013-.13-.037-.191-.04-.1-.11-.189-.183-.275-.02-.024-.028-.054-.05-.076h-.001l-.002-.004-3.214-3.2c-.034-.034-.078-.048-.116-.077a1 1 0 0 0-.174-.115 1 1 0 0 0-.187-.065 1 1 0 0 0-.206-.04 1 1 0 0 0-.19.01 1 1 0 0 0-.209.04 1 1 0 0 0-.188.09c-.04.022-.085.03-.122.057l-3.547 2.648-1.801-1.794 4.798-4.772 8.72 8.577zm13.637-14.034c-.03-.004-.06.008-.09.006a1 1 0 0 0-.23.014q-.09.013-.177.042a1 1 0 0 0-.193.094q-.089.053-.166.123c-.026.022-.057.033-.08.058l-9.397 10.292-8.656-8.514 5.666-5.636a1.068 1.068 0 0 0-.759-1.822l-4.437.026.055-3.215 6.208.053a13.9 13.9 0 0 0 9.963 4.202c.875 0 1.728-.09 2.559-.245.08.064.159.129.26.17l4.819 1.92.305 1.516.356 1.77zm8.083.357-.626-3.116 2.892-2.16.758 1.004 1.136 1.509zm7.507-5.662-1.676 1.57-1.862-2.473 1.663-1.274c.31-.24.701-.336 1.085-.286.387.054.728.256.96.568.434.584.36 1.398-.17 1.895"/><path fill="var(--color1, #2e2f42)" d="m27.204 37.088-4.286-4.267a1.066 1.066 0 0 0-1.505 0l-4.285 4.267a1.07 1.07 0 0 0 0 1.513l4.285 4.266a1.066 1.066 0 0 0 1.505 0l4.286-4.266a1.067 1.067 0 0 0 0-1.513m-5.038 3.518-2.773-2.762 2.773-2.761 2.775 2.761zM34.329 10.142l-.516 2.071c.142.035 3.476.904 3.476 4.298h2.133c0-4.034-3.331-5.931-5.093-6.37M39.422 18.644h-2.133v2.134h2.133z"/></symbol><symbol id="icon-diagram" fill="none" viewBox="0 0 64 64"><g fill="var(--color0, #4d5ae5)" clip-path="url(#clip0_1004689_1305)"><path d="M29.851 29.93h2.132v9.594h-2.132zM38.38 34.194h2.132v5.33H38.38zM21.322 37.392h2.132v2.132h-2.132zM14.926 36.326h2.132v3.198h-2.132z"/><path fill="var(--color1, #2e2f42)" d="M3.198 56.582h51.174a3.2 3.2 0 0 0 3.198-3.198v-4.265a3.2 3.2 0 0 0-3.198-3.198h-1.067V19.334l6.056-5.736a3.216 3.216 0 1 0-1.493-1.526l-4.563 4.325v-2.46a3.2 3.2 0 0 0-3.198-3.198H7.463a3.2 3.2 0 0 0-3.199 3.199V45.92H3.198A3.2 3.2 0 0 0 0 49.119v4.265a3.2 3.2 0 0 0 3.198 3.198m57.57-46.909a1.066 1.066 0 1 1 0 2.133 1.066 1.066 0 0 1 0-2.133M6.397 13.938c0-.59.477-1.067 1.066-1.067h42.644c.589 0 1.066.478 1.066 1.067v4.477l-2.132 2.026V16.07c0-.589-.477-1.066-1.066-1.066H9.595c-.589 0-1.066.477-1.066 1.066v26.653c0 .588.477 1.066 1.066 1.066h38.38c.589 0 1.066-.478 1.066-1.067V23.374l2.132-2.02V45.92H6.397zm9.595 13.859a3.198 3.198 0 1 0 2.214 5.497l3.706 1.86c.43.215.953.114 1.273-.246l7.877-8.863 7.744 5.803c.416.311.996.278 1.372-.079l6.73-6.375v16.262H10.662v-24.52H46.91v5.32L39.366 29.6l-7.81-5.854a1.067 1.067 0 0 0-1.435.144l-7.986 8.985-2.986-1.493q.033-.192.041-.387a3.2 3.2 0 0 0-3.198-3.198m1.066 3.198a1.066 1.066 0 1 1-2.133 0 1.066 1.066 0 0 1 2.133 0m6.396 17.058h10.661v1.066c0 .589-.477 1.066-1.066 1.066H24.52a1.066 1.066 0 0 1-1.066-1.066zM2.132 49.12c0-.589.478-1.066 1.066-1.066h18.124v1.066a3.2 3.2 0 0 0 3.198 3.198h8.53a3.2 3.2 0 0 0 3.198-3.198v-1.066h18.124c.588 0 1.066.477 1.066 1.066v4.265c0 .588-.478 1.066-1.067 1.066H3.198a1.066 1.066 0 0 1-1.066-1.066z"/></g><defs><clipPath id="clip0_1004689_1305"><path fill="#fff" d="M0 0h64v64H0z"/></clipPath></defs></symbol><symbol id="icon-clock" fill="var(--color0, #4d5ae5)" viewBox="0 0 64 64"><path fill="var(--color1, #2e2f42)" d="M62.593 30.603C62.59 13.697 48.883-.004 31.977 0 15.074.003 1.372 13.71 1.375 30.616a30.61 30.61 0 0 0 21.299 29.152q.182.058.373.057c.242 0 .478-.065.685-.187.27-.16.472-.414.567-.713l7.73-24.5a3.826 3.826 0 1 0-1.68-7.27L20.137 16.942a1.275 1.275 0 0 0-1.803 1.804l10.207 10.218a3.75 3.75 0 0 0 1.072 4.618l-7.365 23.346C7.692 51.566.239 35.42 5.601 20.864 10.963 6.31 27.11-1.144 41.665 4.217 56.22 9.58 63.673 25.726 58.312 40.281a28.09 28.09 0 0 1-14.925 15.947l-.796-3.749a1.275 1.275 0 0 0-2.096-.687l-7.674 6.851a1.275 1.275 0 0 0 .462 2.169l9.797 3.127a1.275 1.275 0 0 0 1.638-1.48l-.782-3.678a30.51 30.51 0 0 0 18.657-28.178m-30.609-1.276a1.276 1.276 0 1 1 0 2.552 1.276 1.276 0 0 1 0-2.552m4.201 29.728 4.368-3.896 1.206 5.68z"/><path d="M30.709 6.37v2.55a1.275 1.275 0 1 0 2.55 0V6.37a1.276 1.276 0 0 0-2.55 0M7.752 29.327a1.275 1.275 0 0 0 0 2.55h2.55a1.275 1.275 0 1 0 0-2.55zM56.216 31.878a1.275 1.275 0 1 0 0-2.55h-2.55a1.276 1.276 0 0 0 0 2.55z"/></symbol><symbol id="icon-antenna" fill="none" viewBox="0 0 64 64"><path fill="var(--color1, #2e2f42)" d="M61.546 44.195 44.66 27.185l1.874-9.23c.484.188.998.287 1.517.29h.013a4.318 4.318 0 1 0-4.017-2.87l-9.92 1.21L17.945.32a1.07 1.07 0 0 0-.753-.32c-.28.002-.548.113-.747.31L13.42 3.318a1.067 1.067 0 0 0 0 1.509l1.628 1.65a29.885 29.885 0 0 0 5.04 35.327q.127.122.291.195a6 6 0 0 0-.104 1.094v12.374h-12.8A5.34 5.34 0 0 0 2.142 60.8v2.133c0 .59.477 1.067 1.066 1.067h49.067c.589 0 1.067-.478 1.067-1.067V60.8a5.34 5.34 0 0 0-5.334-5.333h-12.8v-5.484c2.005.42 4.048.635 6.097.64a29.7 29.7 0 0 0 14.08-3.567l1.636 1.646c.199.202.47.318.754.32.28-.002.548-.113.746-.31l3.025-3.009a1.067 1.067 0 0 0 0-1.508M46.56 12.466a2.133 2.133 0 1 1 1.504 3.646h-.007a2.133 2.133 0 0 1-1.493-3.646zm-2.511 7.01-1.197 5.89-2.351-2.364zm-1.212-1.804-3.84 3.817-2.97-2.987zM48.008 57.6a3.2 3.2 0 0 1 3.2 3.2v1.067H4.275V60.8a3.2 3.2 0 0 1 3.2-3.2zm-14.933-4.267v2.134H22.408v-2.134zM22.408 51.2v-8.107c0-2.587 2.393-4.693 5.334-4.693s5.333 2.106 5.333 4.693V51.2zm12.8-3.392v-4.715c0-3.764-3.35-6.826-7.467-6.826a7.6 7.6 0 0 0-6.562 3.572 27.74 27.74 0 0 1-4.557-31.774l37.204 37.417a27.64 27.64 0 0 1-18.618 2.326m22.578-1.367-1.503-1.512L17.182 5.592l-1.51-1.513 1.51-1.504 15.87 15.96c.007 0 .011.013.019.019L59.3 44.937z"/><path fill="var(--color0, #4d5ae5)" d="M27.751 40.533h-.01a3.2 3.2 0 0 0-.01 6.4h.01a3.2 3.2 0 0 0 .01-6.4m.747 3.957a1.067 1.067 0 0 1-1.818-.762 1.07 1.07 0 0 1 1.062-1.061 1.067 1.067 0 0 1 .746 1.823z"/></symbol><symbol id="icon-checkbox" fill="none" viewBox="0 0 16 16"><rect width="15" height="15" x=".5" y=".5" stroke="var(--color2, #2e2f42)" stroke-opacity=".4" rx="1.5"/></symbol><symbol id="icon-send" fill="none" viewBox="0 0 24 20"><path fill="var(--color0, #fff)" d="M24 0 0 11.25l7.67 2.367L19.5 4.375l-8.998 10.116.007.003-.009-.003V20l4.301-4.182 5.45 1.682z"/></symbol><symbol id="icon-person" fill="none" viewBox="0 0 12 12"><path fill="var(--color1, #4d5ae5)" d="M6 6a3 3 0 1 0 0-6 3 3 0 1 0 0 6m0 1.5c-2.002 0-6 1.005-6 3v.75c0 .412.338.75.75.75h10.5c.413 0 .75-.337.75-.75v-.75c0-1.995-3.997-3-6-3"/></symbol><symbol id="icon-phone" fill="none" viewBox="0 0 13 13"><path fill="var(--color2, #2e2f42)" d="m11.726 8.865-1.838-.21a1.44 1.44 0 0 0-1.187.413L7.37 10.399A10.9 10.9 0 0 1 2.6 5.63l1.34-1.339a1.44 1.44 0 0 0 .412-1.186l-.21-1.824A1.45 1.45 0 0 0 2.702 0H1.45C.632 0-.048.68.003 1.498c.383 6.18 5.326 11.116 11.499 11.5.818.05 1.498-.63 1.498-1.448v-1.252a1.434 1.434 0 0 0-1.274-1.433"/></symbol><symbol id="icon-email" fill="none" viewBox="0 0 15 12"><path fill="var(--color2, #2e2f42)" d="M13.5 0h-12C.675 0 .008.675.008 1.5L0 10.5c0 .825.675 1.5 1.5 1.5h12c.825 0 1.5-.675 1.5-1.5v-9c0-.825-.675-1.5-1.5-1.5m-.3 3.188L7.898 6.502a.76.76 0 0 1-.795 0L1.8 3.188a.637.637 0 1 1 .675-1.08L7.5 5.25l5.025-3.142a.637.637 0 1 1 .675 1.08"/></symbol><symbol id="icon-close" fill="none" viewBox="0 0 8 8"><path fill="var(--color2, #2e2f42)" d="M8 .806 7.194 0 4 3.194.806 0 0 .806 3.194 4 0 7.194.806 8 4 4.806 7.194 8 8 7.194 4.806 4z"/></symbol><symbol id="icon-check" fill="none" viewBox="0 0 10 8"><path fill="var(--color0, #f4f4fd)" d="M8.446.255A.917.917 0 0 1 10 .901a.93.93 0 0 1-.242.649L4.864 7.704a.92.92 0 0 1-1.019.229.9.9 0 0 1-.306-.204L.293 4.466a.925.925 0 0 1-.226-1.024.92.92 0 0 1 .87-.578.91.91 0 0 1 .656.294L4.162 5.74 8.422.282z"/></symbol></defs></svg>